<svg xmlns="http://www.w3.org/2000/svg" viewBox="0 0 800 1200" width="100%" height="100%">
  <defs>
    <linearGradient id="bgGrad" x1="0" y1="0" x2="1" y2="1">
      <stop offset="0%" stop-color="#140707"/>
      <stop offset="100%" stop-color="#280f0f"/>
    </linearGradient>
    <filter id="shadow" x="-20%" y="-20%" width="140%" height="140%">
      <feDropShadow dx="10" dy="20" stdDeviation="15" flood-color="#000" flood-opacity="0.8"/>
    </filter>
  </defs>
  <rect width="800" height="1200" fill="url(#bgGrad)"/>
  
  <g transform="translate(180, 680) rotate(-8)" filter="url(#shadow)" opacity="0.2">
    <rect width="400" height="500" rx="8" fill="#ffffff" />
    <line x1="50" y1="80" x2="350" y2="80" stroke="#7f8c8d" stroke-width="8"/>
    <line x1="50" y1="140" x2="300" y2="140" stroke="#bdc3c7" stroke-width="6"/>
    <line x1="50" y1="200" x2="350" y2="200" stroke="#bdc3c7" stroke-width="6"/>
  </g>

  <g transform="translate(190, 520) rotate(-4)" filter="url(#shadow)" opacity="0.4">
    <rect width="400" height="500" rx="8" fill="#ffffff" />
    <line x1="50" y1="80" x2="350" y2="80" stroke="#7f8c8d" stroke-width="8"/>
    <line x1="50" y1="140" x2="300" y2="140" stroke="#bdc3c7" stroke-width="6"/>
    <line x1="50" y1="200" x2="350" y2="200" stroke="#bdc3c7" stroke-width="6"/>
    <path d="M 20,20 L 380,480" stroke="#c92a2a" stroke-width="12" stroke-linecap="round"/>
  </g>

  <g transform="translate(200, 360) rotate(2)" filter="url(#shadow)" opacity="0.6">
    <rect width="400" height="500" rx="8" fill="#ffffff" />
    <line x1="50" y1="80" x2="350" y2="80" stroke="#7f8c8d" stroke-width="8"/>
    <line x1="50" y1="140" x2="300" y2="140" stroke="#bdc3c7" stroke-width="6"/>
    <line x1="50" y1="200" x2="350" y2="200" stroke="#bdc3c7" stroke-width="6"/>
    <path d="M 20,20 L 380,480" stroke="#c92a2a" stroke-width="12" stroke-linecap="round"/>
  </g>

  <g transform="translate(210, 200) rotate(-2)" filter="url(#shadow)" opacity="0.8">
    <rect width="400" height="500" rx="8" fill="#ffffff" />
    <line x1="50" y1="80" x2="350" y2="80" stroke="#7f8c8d" stroke-width="8"/>
    <line x1="50" y1="140" x2="300" y2="140" stroke="#bdc3c7" stroke-width="6"/>
    <line x1="50" y1="200" x2="350" y2="200" stroke="#bdc3c7" stroke-width="6"/>
    <path d="M 20,20 L 380,480" stroke="#c92a2a" stroke-width="12" stroke-linecap="round"/>
  </g>

  <g transform="translate(220, 80) rotate(0)" filter="url(#shadow)">
    <rect width="400" height="500" rx="8" fill="#fafafa" stroke="#ffc078" stroke-width="4"/>
    <line x1="50" y1="80" x2="350" y2="80" stroke="#495057" stroke-width="10"/>
    <line x1="50" y1="140" x2="280" y2="140" stroke="#868e96" stroke-width="6"/>
    <line x1="50" y1="200" x2="320" y2="200" stroke="#868e96" stroke-width="6"/>
    <line x1="50" y1="260" x2="300" y2="260" stroke="#868e96" stroke-width="6"/>
    <circle cx="300" cy="380" r="45" fill="none" stroke="#2b8a3e" stroke-width="5" stroke-dasharray="5,3"/>
    <path d="M 280,380 L 295,395 L 325,360" fill="none" stroke="#2b8a3e" stroke-width="6" stroke-linecap="round" stroke-linejoin="round"/>
  </g>
</svg>
